<?xml version="1.0" encoding="UTF-8" standalone="no"?>
<svg width="211px" height="211px" viewBox="0 0 211 211" version="1.1" xmlns="http://www.w3.org/2000/svg" xmlns:xlink="http://www.w3.org/1999/xlink" xmlns:sketch="http://www.bohemiancoding.com/sketch/ns">
    <title>logo-square</title>
    <description>Created with Sketch (http://www.bohemiancoding.com/sketch)</description>
    <defs></defs>
    <g id="Page-1" stroke="none" stroke-width="1" fill="none" fill-rule="evenodd" sketch:type="MSPage">
        <g id="Shield" sketch:type="MSLayerGroup" transform="translate(0.000000, 1.000000)">
            <path d="M96.5981905,198.484061 L1.54974095,103.435714 C-0.46988381,101.416 -0.46988381,98.141619 1.54974095,96.122 L96.5981905,1.07352381 C98.6178095,-0.946095238 101.892286,-0.946095238 103.911905,1.07352381 L198.960286,96.1219048 C200.979905,98.1415238 200.979905,101.416095 198.960286,103.435714 L103.911905,198.484061 C101.892286,200.503686 98.6178095,200.503686 96.5981905,198.484061 L96.5981905,198.484061 Z" id="Fill-2" fill="#2D2D2D" sketch:type="MSShapeGroup"></path>
            <path d="M80.6083143,71.4218095 L78.7833619,64.894381 L71.9589714,66.8028571 C69.3175429,67.5415238 66.5275905,65.8553333 65.7416381,63.0441905 L61.6265619,48.3259048 C60.8403714,45.5139048 62.3501714,42.6244762 64.992381,41.885619 L95.5091429,33.351619 C98.1506667,32.6128571 100.939143,34.3002857 101.725333,37.1122857 L105.840381,51.8305714 C106.626381,54.6417143 105.117143,57.5300952 102.475714,58.2688571 L103.47619,61.8473333 C108.08981,60.5571429 110.755524,55.614381 109.41781,50.8300952 L105.302762,36.1118095 C103.965143,31.3275238 99.1231429,28.4835238 94.5088571,29.7739048 L63.9921048,38.3079048 C59.376981,39.5985714 56.7116,44.542 58.0492286,49.3262857 L62.1642762,64.0445714 C63.5019333,68.8288571 68.3443524,71.672 72.9594762,70.3813333 L76.2065524,69.4733333 L77.9796476,75.8151429 C78.2518095,76.7886667 79.1265619,77.4957143 80.1570095,77.5782857 C80.450181,77.6018095 80.7367238,77.5740952 81.0049333,77.4990476 C81.6582952,77.316381 82.2066286,76.8591429 82.5031714,76.2133333 L86.9594857,66.4670476 L93.6071429,64.608 L92.6066667,61.029619 L84.298819,63.3528571 L80.6083143,71.4218095 L80.6083143,71.4218095 Z" id="Fill-3" fill="#FFFFFF" sketch:type="MSShapeGroup"></path>
            <path d="M132.479143,39.7510476 L111.818952,45.5286667 L112.819429,49.1071429 L133.479714,43.3295238 C136.121048,42.5908571 138.911238,44.2778095 139.697429,47.0898095 L143.81181,61.8057143 C144.598,64.6177143 143.08819,67.5070476 140.446,68.246 L133.622381,70.1541905 L135.448286,76.6846667 L128.106857,71.698381 L109.928952,76.7818095 C107.28819,77.5202857 104.498952,75.8331429 103.712667,73.0211429 L99.5979048,58.303619 C98.8117143,55.491619 100.321429,52.6022857 102.962095,51.8638095 L101.961619,48.2853333 C97.3480952,49.5755238 94.6819048,54.5191429 96.0195238,59.3034286 L100.134381,74.0209524 C101.472667,78.807619 106.314857,81.6499048 110.929143,80.3595238 L127.44619,75.7405714 L136.314286,81.7648571 C136.901048,82.1601905 137.605714,82.2652381 138.257619,82.0829524 C138.525714,82.008 138.785619,81.8846667 139.024,81.712381 C139.863714,81.1067619 140.246095,80.0465714 139.973524,79.0715238 L138.201048,72.7320952 L141.446571,71.8244762 C146.061619,70.5339048 148.727238,65.5911429 147.389238,60.8052381 L143.274762,46.0894286 C141.936952,41.3042857 137.094286,38.4604762 132.479143,39.7510476 L132.479143,39.7510476 Z" id="Fill-4" fill="#FFFFFF" sketch:type="MSShapeGroup"></path>
            <path d="M78.6302571,40.2213333 L76.9639619,58.6665714 L80.6765905,57.628381 L80.9468571,53.5495238 L87.1815143,51.806 L89.4802857,55.166381 L93.286,54.1021905 L82.3890286,39.1701905 L78.6302571,40.2213333 L78.6302571,40.2213333 Z M81.1410952,50.5491429 L81.6021429,43.8226667 L81.6482952,43.8097143 L85.4609333,49.3410476 L81.1410952,50.5491429 L81.1410952,50.5491429 Z" id="Fill-5" fill="#FFFFFF" sketch:type="MSShapeGroup"></path>
            <path d="M114.25781,66.2241905 C114.768952,68.052381 116.268857,68.911619 118.174095,68.3787619 C120.449429,67.6901905 122.307238,65.603619 122.860857,64.7417143 C123.414,63.8781905 124.760857,61.0411429 125.131905,58.9894286 C126.386952,59.2030476 127.157524,59.9333333 127.428952,60.904381 C128.016286,63.0047619 126.33381,64.7891429 123.208571,66.0620952 L125.381238,67.7929524 C130.252857,65.7166667 131.37981,63.1119048 130.510095,60.0015238 C129.775524,57.3741905 127.676571,56.2413333 125.361905,56.1352381 C125.347048,55.9317143 125.361524,55.7105714 125.346857,55.504381 L122.33,55.7962857 C122.392095,56.0920952 122.348857,56.1617143 122.37381,56.4688571 C121.325143,56.6985714 120.221714,57.1744762 119.874286,57.3557143 C119.727333,56.8304762 119.354571,55.4234286 119.233429,54.9133333 C121.598571,54.1472381 123.897048,53.2959048 125.982762,52.355619 L124.936095,49.5881905 C122.824857,50.6608571 120.731048,51.4986667 118.644476,52.208381 C118.543714,51.6272381 118.176762,50.0075238 118.176762,50.0075238 L115.077333,50.6245714 C115.255238,51.4140952 115.493429,52.3335238 115.677143,53.1411429 C114.339143,53.5359048 112.746667,53.9812381 111.903238,54.1964762 L112.80619,56.9011429 L113.135619,56.8090476 C113.933905,56.5858095 115.22619,56.1806667 116.383714,55.8157143 C116.595619,56.5735238 117.070762,58.202381 117.297429,58.9362857 C114.873524,60.8489524 113.50181,63.520381 114.25781,66.2241905 L114.25781,66.2241905 Z M122.169619,59.2711429 C121.988667,60.2013333 121.710667,61.0789524 121.339619,61.8511429 C121.080476,61.2311429 120.857619,60.5812381 120.62381,59.8922857 C120.826381,59.794381 121.643619,59.4182857 122.169619,59.2711429 L122.169619,59.2711429 Z M118.205905,61.5964762 C118.608476,62.6587619 119.018952,63.6758095 119.459619,64.5798095 C119.02581,64.974 118.584,65.2658095 118.139905,65.4114286 C117.177429,65.7225714 117.003714,65.1009524 116.927143,64.8272381 C116.639333,63.7946667 117.170857,62.6205714 118.205905,61.5964762 L118.205905,61.5964762 Z" id="Fill-6" fill="#FFFFFF" sketch:type="MSShapeGroup"></path>
            <text id="html5j" sketch:type="MSTextLayer" font-family="Exo 2.0" font-size="43.2941176" font-weight="633" fill="#FFFFFF">
                <tspan x="31.8661619" y="119.047513">html5j</tspan>
            </text>
            <text id="English" sketch:type="MSTextLayer" font-family="Exo 2.0" font-size="24.6315789" font-weight="633" fill="#FFFFFF">
                <tspan x="55.7681579" y="144.333273">English</tspan>
            </text>
        </g>
    </g>
</svg>