<?xml version="1.0" encoding="UTF-8" standalone="no"?>
<svg width="510px" height="211px" viewBox="0 0 510 211" version="1.1" xmlns="http://www.w3.org/2000/svg" xmlns:xlink="http://www.w3.org/1999/xlink" xmlns:sketch="http://www.bohemiancoding.com/sketch/ns">
    <title>logo-rectangle</title>
    <description>Created with Sketch (http://www.bohemiancoding.com/sketch)</description>
    <defs></defs>
    <g id="Page-1" stroke="none" stroke-width="1" fill="none" fill-rule="evenodd" sketch:type="MSPage">
        <g id="Text" sketch:type="MSLayerGroup" transform="translate(210.000000, 0.000000)" font-family="Exo 2.0" fill="#2D2D2D" font-weight="686">
            <text id="html5j" sketch:type="MSTextLayer" font-size="96">
                <tspan x="0.45947" y="97.7997665">html5j</tspan>
            </text>
            <text id="English" sketch:type="MSTextLayer" font-size="78">
                <tspan x="0.81725" y="165.89981">English</tspan>
            </text>
        </g>
        <g id="Shield" sketch:type="MSLayerGroup" transform="translate(-7.000000, -6.000000)">
            <path d="M0,224 L224,224 L224,0 L0,0 L0,224 Z" id="Fill-1" fill-opacity="0" fill="#000000" sketch:type="MSShapeGroup"></path>
            <path d="M108.4281,215.408264 L8.627243,115.6075 C6.506638,113.4868 6.506638,110.0487 8.627243,107.9281 L108.4281,8.1272 C110.5487,6.0066 113.9869,6.0066 116.1075,8.1272 L215.9083,107.928 C218.0289,110.0486 218.0289,113.4869 215.9083,115.6075 L116.1075,215.408264 C113.9868,217.52887 110.5487,217.52887 108.4281,215.408264 L108.4281,215.408264 Z" id="Fill-2" fill="#2D2D2D" sketch:type="MSShapeGroup"></path>
            <path d="M85.58946,127.29855 L83.05522,119.4989 L74.8999,122.1488 C71.74335,123.1744 68.28548,121.276 67.19403,117.9169 L61.47969,100.33 C60.38794,96.9699 62.06831,93.4009 65.22581,92.375 L101.6941,80.5257 C104.8506,79.5001 108.3069,81.4001 109.3987,84.7601 L115.113,102.3471 C116.2045,105.7062 114.5247,109.2739 111.3682,110.2995 L112.7575,114.5755 C118.2708,112.7841 121.2455,106.6748 119.388,100.958 L113.6737,83.3711 C111.8162,77.6543 105.8193,74.459 100.3051,76.2507 L63.83679,88.1 C58.32161,89.892 55.3472,96.0022 57.2047,101.719 L62.91904,119.3059 C64.77654,125.02274 70.77408,128.21671 76.28925,126.42471 L80.16956,125.16394 L82.63181,132.74194 C83.00974,133.90509 84.10281,134.716 85.35286,134.76407 C85.70851,134.77783 86.05357,134.72986 86.37408,134.6257 C87.15491,134.37201 87.79495,133.79184 88.121,132.99612 L93.01959,120.9897 L100.9638,118.4085 L99.57443,114.1326 L89.64636,117.3584 L85.58946,127.29855 L85.58946,127.29855 Z" id="Fill-3" fill="#FFFFFF" sketch:type="MSShapeGroup"></path>
            <path d="M146.7148,86.4064 L122.0254,94.4285 L123.4147,98.7044 L148.1041,90.6823 C151.2607,89.6567 154.7188,91.5561 155.8106,94.9161 L161.524,112.5002 C162.6158,115.8603 160.9354,119.4293 157.7779,120.4552 L149.6235,123.1047 L152.159,130.90811 L143.0324,125.24841 L121.3093,132.30664 C118.1537,133.33197 114.6965,131.43234 113.6047,128.07227 L107.8907,110.4863 C106.7989,107.1262 108.4793,103.5573 111.6349,102.5319 L110.2456,98.256 C104.7323,100.0473 101.7569,106.1578 103.6144,111.8747 L109.3285,129.46063 C111.1869,135.1803 117.1841,138.37332 122.6983,136.58163 L142.4366,130.1683 L153.4612,137.0062 C154.1905,137.45477 155.0477,137.54636 155.8267,137.29327 C156.1472,137.18912 156.4551,137.02701 156.7348,136.80682 C157.7197,136.03256 158.1287,134.73151 157.7502,133.56647 L155.2888,125.9913 L159.1672,124.73114 C164.6824,122.9391 167.6572,116.8299 165.799,111.1112 L160.0856,93.5271 C158.2278,87.8094 152.2299,84.6144 146.7148,86.4064 L146.7148,86.4064 Z" id="Fill-4" fill="#FFFFFF" sketch:type="MSShapeGroup"></path>
            <path d="M81.63147,89.6784 L80.54288,112.0613 L84.97955,110.6197 L85.10153,105.675 L92.55209,103.2542 L95.50015,107.2014 L100.0481,105.7236 L86.12331,88.2189 L81.63147,89.6784 L81.63147,89.6784 Z M85.18575,102.038 L85.40546,93.8829 L85.46062,93.865 L90.34808,100.3606 L85.18575,102.038 L85.18575,102.038 Z" id="Fill-5" fill="#FFFFFF" sketch:type="MSShapeGroup"></path>
            <path d="M126.0132,119.3257 C126.723,121.5103 128.5796,122.4738 130.8564,121.7339 C133.5728,120.7872 135.7143,118.1714 136.3404,117.1016 C136.9658,116.0299 138.4518,112.5325 138.7974,110.0334 C140.3256,110.2287 141.2938,111.0728 141.6708,112.2331 C142.4863,114.743 140.5418,116.9846 136.8271,118.6805 L139.5408,120.664 C145.3267,117.9092 146.5585,114.7037 145.3508,110.9869 C144.3307,107.8475 141.7361,106.5834 138.9322,106.5713 C138.904,106.326 138.9105,106.0579 138.8823,105.8094 L135.2493,106.3138 C135.3393,106.6683 135.2906,106.7546 135.3362,107.1246 C134.0798,107.455 132.7696,108.0858 132.3586,108.3224 C132.1546,107.6947 131.6332,106.0125 131.4611,105.4017 C134.2823,104.3568 137.0185,103.2122 139.493,101.9708 L138.0886,98.6776 C135.5898,100.0805 133.1004,101.1984 130.6132,102.1612 C130.4623,101.4637 129.9372,99.524 129.9372,99.524 L126.2209,100.4255 C126.4755,101.3711 126.8097,102.4706 127.0724,103.4378 C125.4744,103.9822 123.5714,104.6006 122.5625,104.9032 L123.79,108.1277 L124.1837,107.9997 C125.1376,107.6898 126.6797,107.1351 128.061,106.6358 C128.3552,107.5412 129.0115,109.4866 129.3224,110.3625 C126.4878,112.7965 124.9635,116.095 126.0132,119.3257 L126.0132,119.3257 Z M135.23,110.5227 C135.0579,111.6564 134.7658,112.7313 134.356,113.6835 C134.0115,112.9469 133.7094,112.1724 133.3921,111.3512 C133.6321,111.2228 134.6014,110.727 135.23,110.5227 L135.23,110.5227 Z M130.5544,113.5329 C131.0944,114.7969 131.6418,116.0059 132.22,117.0767 C131.7153,117.575 131.1957,117.9499 130.6661,118.1483 C129.5181,118.5728 129.2767,117.83 129.1704,117.5029 C128.7706,116.269 129.3543,114.8229 130.5544,113.5329 L130.5544,113.5329 Z" id="Fill-6" fill="#FFFFFF" sketch:type="MSShapeGroup"></path>
        </g>
    </g>
</svg>